<?xml version="1.0" standalone="no"?><!DOCTYPE svg PUBLIC "-//W3C//DTD SVG 1.1//EN" "http://www.w3.org/Graphics/SVG/1.1/DTD/svg11.dtd"><svg t="1553151391835" class="icon" style="" viewBox="0 0 1024 1024" version="1.1" xmlns="http://www.w3.org/2000/svg" p-id="2553" xmlns:xlink="http://www.w3.org/1999/xlink" width="300" height="300"><defs><style type="text/css"></style></defs><path d="M1013.12 576a31.36 31.36 0 0 0-3.84-13.44 31.36 31.36 0 0 0-8.96-8.96l-218.88-128V183.04a31.36 31.36 0 0 0 0-26.24 32 32 0 0 0-17.92-14.08L528 10.24a32 32 0 0 0-32 0L261.12 145.28a31.36 31.36 0 0 0-10.24 10.24 31.36 31.36 0 0 0-3.84 13.44v256l-218.88 128a31.36 31.36 0 0 0-9.6 9.6 31.36 31.36 0 0 0-7.68 13.44v272.64a32 32 0 0 0 16 27.52l234.88 135.68a32 32 0 0 0 32 0l218.88-128 218.88 128h16a31.36 31.36 0 0 0 21.12-8.32l227.84-131.2a32 32 0 0 0 16-27.52V576z m-266.24 102.4L576 579.84l170.88-98.56 170.88 98.56zM277.12 481.28l85.76 49.28L448 579.84l-169.6 97.92-172.16-97.92z m203.52-153.6V524.8l-28.16-16-143.36-83.2V228.48z m233.6 97.92L544.64 523.52V327.68l169.6-97.92z m-405.12 308.48L480 635.52V832l-170.88 98.56zM512 74.88l171.52 99.2L512 272.64 341.12 173.44zM74.88 635.52l170.88 98.56v197.12L74.88 832z m469.12 0l172.8 99.84v197.12L544 832z m236.8 294.4v-197.12l168.96-97.28V832z" p-id="2554"></path></svg>