<?xml version="1.0" standalone="no"?><!DOCTYPE svg PUBLIC "-//W3C//DTD SVG 1.1//EN" "http://www.w3.org/Graphics/SVG/1.1/DTD/svg11.dtd"><svg t="1555384694534" class="icon" style="" viewBox="0 0 1024 1024" version="1.1" xmlns="http://www.w3.org/2000/svg" p-id="1980" xmlns:xlink="http://www.w3.org/1999/xlink" width="200" height="200"><defs><style type="text/css"></style></defs><path d="M540.357 400.593V73.227c0-15.675-12.684-28.357-28.357-28.357-15.675 0-28.357 12.684-28.357 28.357v327.366c-50.336 12.742-87.843 58.045-87.843 112.293s37.507 99.551 87.843 112.293v325.594c0 15.675 12.684 28.357 28.357 28.357s28.357-12.684 28.357-28.357V625.179c50.336-12.742 87.843-58.045 87.843-112.293s-37.507-99.551-87.843-112.293z m0 163.564c-8.555 4.77-17.893 8.214-28.357 8.214-10.464 0-19.805-3.445-28.357-8.214-18.246-10.174-31.127-28.946-31.127-51.271s12.881-41.098 31.127-51.271c8.555-4.77 17.893-8.214 28.357-8.214 10.464 0 19.805 3.445 28.357 8.214 18.246 10.174 31.127 28.946 31.127 51.271s-12.881 41.099-31.127 51.271z m361.565-360.324V73.227c0-15.675-12.684-28.357-28.357-28.357-15.675 0-28.357 12.684-28.357 28.357v130.606c-50.336 12.742-87.843 58.045-87.843 112.293s37.507 99.551 87.843 112.293v522.354c0 15.675 12.684 28.357 28.357 28.357 15.675 0 28.357-12.684 28.357-28.357V428.418c50.336-12.742 87.843-58.045 87.843-112.293s-37.507-99.55-87.843-112.292z m0 163.562c-8.555 4.77-17.893 8.214-28.357 8.214s-19.805-3.445-28.357-8.214c-18.246-10.174-31.127-28.946-31.127-51.271s12.881-41.098 31.127-51.271c8.554-4.77 17.893-8.214 28.357-8.214 10.464 0 19.805 3.445 28.357 8.214 18.246 10.174 31.127 28.946 31.127 51.271s-12.881 41.098-31.127 51.271zM178.794 597.354V73.227c0-15.675-12.684-28.357-28.357-28.357S122.08 57.554 122.08 73.227v524.127c-50.336 12.742-87.843 58.045-87.843 112.293s37.507 99.551 87.843 112.293v128.833c0 15.675 12.684 28.357 28.357 28.357s28.357-12.684 28.357-28.357V821.94c50.336-12.742 87.843-58.045 87.843-112.293s-37.507-99.551-87.843-112.293z m0 163.563c-8.555 4.77-17.893 8.214-28.357 8.214s-19.805-3.445-28.357-8.214c-18.246-10.174-31.127-28.946-31.127-51.271s12.881-41.098 31.127-51.271c8.555-4.77 17.893-8.214 28.357-8.214s19.805 3.445 28.357 8.214c18.246 10.174 31.127 28.946 31.127 51.271s-12.881 41.099-31.127 51.271z" p-id="1981"></path></svg>