<?xml version="1.0" standalone="no"?><!DOCTYPE svg PUBLIC "-//W3C//DTD SVG 1.1//EN" "http://www.w3.org/Graphics/SVG/1.1/DTD/svg11.dtd"><svg t="1554712864251" class="icon" style="" viewBox="0 0 1024 1024" version="1.1" xmlns="http://www.w3.org/2000/svg" p-id="1123" xmlns:xlink="http://www.w3.org/1999/xlink" width="200" height="200"><defs><style type="text/css"></style></defs><path d="M46.494725 395.728342C20.816807 395.728342 0.023276 416.38232 0.023276 442.246309l0 139.5539c0 25.677918 20.607459 46.517967 46.471449 46.517967l136.297642 0c4.140099 11.722528 8.884932 23.119429 14.234498 34.237223l-96.431745 96.385227c-18.142007 18.142007-18.281561 47.448326 0.046518 65.729887l98.711125 98.711125c18.142007 18.188525 47.448326 18.281561 65.729887 0.046518l96.617817-96.617817c11.024758 5.25653 22.375142 9.954845 34.004634 14.048426l0 136.623268c0 25.677918 20.653977 46.471449 46.517967 46.471449l139.5539 0c25.677918 0 46.517967-20.607459 46.517967-46.471449l0-136.80934c11.582974-4.093581 22.88684-8.791896 33.86508-14.048426l96.757371 96.757371c18.142007 18.142007 47.448326 18.281561 65.729887-0.046518l98.711125-98.711125c18.188525-18.142007 18.281561-47.494844 0.046518-65.729887l-96.757371-96.757371c5.25653-10.97824 9.954845-22.282106 14.048426-33.86508l136.80934 0c25.677918 0 46.471449-20.653977 46.471449-46.517967l0-139.5539c0-25.677918-20.607459-46.517967-46.471449-46.517967l-136.623268 0c-4.093581-11.629492-8.791896-22.979876-14.048426-34.004634l96.571299-96.617817c18.142007-18.142007 18.281561-47.448326-0.046518-65.729887l-98.711125-98.711125c-18.188525-18.188525-47.494844-18.281561-65.729887-0.046518l-96.385227 96.431745c-11.071276-5.303048-22.514696-10.094399-34.237223-14.234498l0-136.297642c0-25.677918-20.653977-46.471449-46.517967-46.471449l-139.5539 0c-25.677918 0-46.517967 20.607459-46.517967 46.471449l0 136.11157c-11.769046 4.140099-23.258983 8.884932-34.376777 14.234498L265.08265 100.618362c-18.142007-18.142007-47.448326-18.281561-65.729887 0.046518L100.641638 199.329487c-18.142007 18.142007-18.281561 47.448326-0.046518 65.729887l96.245673 96.245673c-5.349566 11.164312-10.094399 22.607732-14.234498 34.376777L46.494725 395.681824zM511.720909 279.154318c128.436106 0 232.589833 104.153727 232.589833 232.589833s-104.153727 232.589833-232.589833 232.589833c-128.436106 0-232.589833-104.153727-232.589833-232.589833S383.284803 279.154318 511.720909 279.154318z" p-id="1124"></path></svg>