<?xml version="1.0" standalone="no"?><!DOCTYPE svg PUBLIC "-//W3C//DTD SVG 1.1//EN" "http://www.w3.org/Graphics/SVG/1.1/DTD/svg11.dtd"><svg t="1551921332079" class="icon" style="" viewBox="0 0 1024 1024" version="1.1" xmlns="http://www.w3.org/2000/svg" p-id="2993" xmlns:xlink="http://www.w3.org/1999/xlink" width="200" height="200"><defs><style type="text/css"></style></defs><path d="M388.8 893.5c-8.5 0-16.6-3.4-22.6-9.4L139.9 657.8c-12.5-12.5-12.5-32.8 0-45.3l475.2-475.2c6-6 14.1-9.4 22.6-9.4H864c17.7 0 32 14.3 32 32v226.3c0 8.5-3.4 16.6-9.4 22.6L411.5 884.1c-6 6-14.2 9.4-22.7 9.4z m-181-258.3l181 181L832 373V192H651L207.8 635.2z" p-id="2994"></path><path d="M704 368c-26.5 0-48-21.5-48-48s21.5-48 48-48 48 21.5 48 48-21.5 48-48 48z" p-id="2995"></path></svg>